<?xml version="1.0" encoding="utf-8"?>
<!-- Generator: Adobe Illustrator 22.1.0, SVG Export Plug-In . SVG Version: 6.00 Build 0)  -->
<svg version="1.1" id="Capa_1" xmlns="http://www.w3.org/2000/svg" xmlns:xlink="http://www.w3.org/1999/xlink" x="0px" y="0px"
	 viewBox="0 0 480 480" style="enable-background:new 0 0 480 480;" xml:space="preserve">
<style type="text/css">
	.st0{fill:#FDBD40;}
	.st1{fill:#AE89AE;}
	.st2{fill:#FCF05A;}
</style>
<path class="st0" d="M184,408h112c17.7,0,32,14.3,32,32l0,0H152l0,0C152,422.3,166.3,408,184,408z"/>
<path class="st1" d="M72,40h336c17.7,0,32,14.3,32,32v240c0,17.7-14.3,32-32,32H72c-17.7,0-32-14.3-32-32V72C40,54.3,54.3,40,72,40z
	"/>
<path class="st0" d="M40,280h400l0,0v32c0,17.7-14.3,32-32,32H72c-17.7,0-32-14.3-32-32V280L40,280z"/>
<g>
	<path class="st1" d="M24,200h144c8.8,0,16,7.2,16,16v208c0,8.8-7.2,16-16,16H24c-8.8,0-16-7.2-16-16V216C8,207.2,15.2,200,24,200z"
		/>
	<path class="st1" d="M392,248h64c8.8,0,16,7.2,16,16v160c0,8.8-7.2,16-16,16h-64c-8.8,0-16-7.2-16-16V264
		C376,255.2,383.2,248,392,248z"/>
</g>
<g>
	<path class="st2" d="M376,408h96l0,0v16c0,8.8-7.2,16-16,16h-64c-8.8,0-16-7.2-16-16V408L376,408z"/>
	<path class="st2" d="M8,408h176l0,0v16c0,8.8-7.2,16-16,16H24c-8.8,0-16-7.2-16-16V408L8,408z"/>
	<path class="st2" d="M216,344h48v64h-48V344z"/>
	<path class="st2" d="M56,337c-4.4,0-8-3.6-8-8c0-2.1,0.8-4.2,2.3-5.7l33.9-33.9c3.1-3.2,8.1-3.3,11.3-0.2c3.2,3.1,3.3,8.1,0.2,11.3
		c-0.1,0.1-0.1,0.1-0.2,0.2l-33.9,33.9C60.2,336.1,58.1,337,56,337z"/>
	<path class="st2" d="M104,337c-4.4,0-8-3.6-8-8c0-2.1,0.8-4.2,2.3-5.7l33.9-33.9c3.2-3.1,8.2-3,11.3,0.2c3,3.1,3,8,0,11.1
		l-33.9,33.9C108.2,336.1,106.1,337,104,337z"/>
</g>
<g>
	<path class="st0" d="M184,207.2c-4.4,0-8-3.6-8-8c0-2.1,0.8-4.2,2.3-5.7l79.2-79.2c3.2-3.1,8.2-3,11.3,0.2c3,3.1,3,8,0,11.1
		l-79.2,79.2C188.2,206.4,186.1,207.2,184,207.2L184,207.2z"/>
	<path class="st0" d="M232.8,207.2c-4.4,0-8-3.6-8-8c0-2.1,0.8-4.2,2.3-5.7l79.2-79.2c3.2-3.1,8.2-3,11.3,0.2c3,3.1,3,8,0,11.1
		l-79.2,79.2C237,206.4,234.9,207.2,232.8,207.2L232.8,207.2z"/>
</g>
<path class="st2" d="M412.7,347.3c-4.4,0-8-3.6-8-8c0-2.1,0.8-4.2,2.3-5.7l22.6-22.6c3.2-3.1,8.2-3,11.3,0.2c3,3.1,3,8,0,11.1
	L418.3,345C416.8,346.5,414.8,347.3,412.7,347.3z"/>
<path d="M240.2,320c-4.4,0-8-3.5-8-8c0-4.4,3.5-8,8-8h0.1c4.4,0,8,3.6,8,8S244.6,320,240.2,320z"/>
<path class="st0" d="M256,80h-32c-4.4,0-8-3.6-8-8s3.6-8,8-8h32c4.4,0,8,3.6,8,8S260.4,80,256,80z"/>
<path d="M456,240h-8V72c0-22.1-17.9-40-40-40H72c-22.1,0-40,17.9-40,40v120h-8c-13.3,0-24,10.7-24,24v208c0,13.3,10.7,24,24,24l0,0
	h304c4.4,0,8-3.6,8-8c0-22.1-17.9-40-40-40h-24v-48h96v72c0,13.3,10.7,24,24,24l0,0h64c13.3,0,24-10.7,24-24l0,0V264
	C480,250.7,469.3,240,456,240z M176,424c0,4.4-3.6,8-8,8H24c-4.4,0-8-3.6-8-8v-8h160V424z M176,400H16V216c0-4.4,3.6-8,8-8h144
	c4.4,0,8,3.6,8,8V400z M296,416c10.2,0,19.2,6.4,22.6,16H190.5c0.9-2.6,1.4-5.3,1.5-8v-8H296z M192,400v-48h16v48H192z M224,400v-48
	h32v48H224z M368,336H192v-48h176V336z M368,264v8H192v-56c0-3.8-1-7.5-2.7-10.9c0.1-0.1,0.3-0.1,0.4-0.3l79.2-79.2
	c3.1-3.2,3-8.2-0.2-11.3c-3.1-3-8-3-11.1,0l-79.2,79.2c-0.2,0.2-0.3,0.5-0.4,0.7c-3.1-1.4-6.5-2.2-9.9-2.2H48V72
	c0-13.3,10.7-24,24-24h336c13.3,0,24,10.7,24,24v168h-40C378.7,240,368,250.7,368,264z M464,424c0,4.4-3.6,8-8,8h-64
	c-4.4,0-8-3.6-8-8v-8h80V424z M464,400h-80V264c0-4.4,3.6-8,8-8h64c4.4,0,8,3.6,8,8V400z"/>
<path d="M95.6,289.4c-3.1-3.1-8.2-3.1-11.3,0l-33.9,33.9c-3.2,3.1-3.3,8.1-0.2,11.3c3.1,3.2,8.1,3.3,11.3,0.2
	c0.1-0.1,0.1-0.1,0.2-0.2l33.9-33.9C98.7,297.6,98.7,292.5,95.6,289.4z"/>
<path d="M132.3,289.4l-33.9,33.9c-3.2,3.1-3.3,8.1-0.2,11.3c3.1,3.2,8.1,3.3,11.3,0.2c0.1-0.1,0.1-0.1,0.2-0.2l33.9-33.9
	c3.1-3.2,3-8.2-0.2-11.3C140.3,286.4,135.4,286.4,132.3,289.4z"/>
<path d="M306.3,114.3l-79.2,79.2c-3.2,3.1-3.3,8.1-0.2,11.3s8.1,3.3,11.3,0.2c0.1-0.1,0.1-0.1,0.2-0.2l79.2-79.2
	c3.1-3.2,3-8.2-0.2-11.3C314.4,111.3,309.4,111.3,306.3,114.3z"/>
<path d="M429.7,311L407,333.7c-3.2,3.1-3.3,8.1-0.2,11.3c3.1,3.2,8.1,3.3,11.3,0.2c0.1-0.1,0.1-0.1,0.2-0.2l22.6-22.6
	c3.1-3.2,3-8.2-0.2-11.3C437.7,308,432.8,308,429.7,311z"/>
<path d="M240.2,320c4.4,0,8-3.6,8-8s-3.6-8-8-8h-0.1c-4.4,0-8,3.6-8,8C232.1,316.5,235.7,320,240.2,320z"/>
<path d="M256,64h-32c-4.4,0-8,3.6-8,8s3.6,8,8,8h32c4.4,0,8-3.6,8-8S260.4,64,256,64z"/>
</svg>
