<?xml version="1.0" encoding="utf-8"?>
<!-- Generator: Adobe Illustrator 22.1.0, SVG Export Plug-In . SVG Version: 6.00 Build 0)  -->
<svg version="1.1" id="Layer_1" xmlns="http://www.w3.org/2000/svg" xmlns:xlink="http://www.w3.org/1999/xlink" x="0px" y="0px"
	 viewBox="0 0 498.2 498.2" style="enable-background:new 0 0 498.2 498.2;" xml:space="preserve">
<style type="text/css">
	.st0{fill:#AE89AE;}
	.st1{fill:#333333;}
</style>
<g>
	<path class="st0" d="M211.9,212.5c-0.4-3.1,0.1-6.1,1.2-8.8v0L201.3,192l24-8l9.5,1.4c-7.6-8.5-4.4-22.1,6.5-26.1l50.8-18.5
		c-20.5-22.5-50-36.8-82.8-36.8c-61.9,0-112,50.1-112,112s50.1,112,112,112c22.7,0,43.9-6.8,61.5-18.5L217.3,256L211.9,212.5z"/>
	<path class="st0" d="M251.8,212.9l13.5,27.1l32,24l20.4-20.4c0.6-2.3,1.2-4.6,1.6-7l-8.7-15.2L251.8,212.9z"/>
</g>
<path class="st1" d="M478.6,398.4l-21.6,5.4l-31.8-70l-9.9-89.5l14.7,2.1c1,0.1,2,0.2,2.9,0.2c8.7,0,16.6-5.5,19.4-14
	c1.9-5.8,1.2-12-2-17.2c-3.2-5.2-8.5-8.6-14.5-9.5l-18.4-2.6V40c0-22.1-17.9-40-40-40h-336c-22.1,0-40,17.9-40,40
	c0,19.3,13.8,35.5,32,39.2V496H353l0.6,2.2l15.4-4.4l-13.7-48l56.4-14.1l52-13l0,0l4.4-1.1l13.7,41l15.2-5.1L478.6,398.4z
	 M441.1,407.8l-70.9,17.7l-18.1-54.2l-57.2-49l-70.1-70.1l-5.1-40.7c-0.2-1.4,0-2.7,0.3-3.9l0.4-1c0.8-2,2.1-3.6,3.7-4.8
	c4.2-2.7,10.2-2,13.6,1.7c0.5,0.6,1,1.3,1.4,2.1l7.3,14.6l0,0l12.5,25l39.1,29.3l33.2-33.2l-5.6-9.8l73.1,10.4l10.5,94.9
	L441.1,407.8z M137.4,270.5c5.2,1,10.5,1.5,15.9,1.5c20.4,0,39.9-7.1,55.5-19.8l0.9,7.5L266,316c-13.6,17.6-34.3,28-56.7,28
	c-39.7,0-72-32.3-72-72C137.3,271.5,137.4,271,137.4,270.5z M393.8,196.9l0.4,3.2l-49.3-7l-44.9-6.4l-6.5-11.4l-33.8,5.6l-7.6-1.1
	l-12.6-1.8c-0.8-1.7-1-3.6-0.5-5.5c0.7-2.7,2.5-4.7,5.1-5.7l60.5-22L393.8,196.9z M253.5,198.5c-0.5-0.9-1-1.8-1.5-2.6l111.4,15.9
	l37.6,5.4l-1.5,8.8L257,205.6L253.5,198.5z M198.8,200.9l5.3,5.3c-0.4,2.4-0.6,4.9-0.2,7.3l1.2,9.9c-4.5-6.8-7.8-14.2-9.7-22.1
	C196.6,201.1,197.7,201,198.8,200.9z M306.1,127.2l-67.5,24.5c-1,0.4-1.9,1-2.9,1.5c-3.5-9.5-8.6-18.1-15-25.7
	c12.3-9.7,27.7-15.6,44.6-15.6c19.2,0,37.1,7.8,50.3,20.8L306.1,127.2z M223.5,168.3c0,0.1-0.1,0.2-0.1,0.2
	c-0.6,2.6-0.7,5.2-0.5,7.8l-25.8,8.6c-1.2,0.2-2.5,0.3-3.7,0.5c0-0.5-0.1-1-0.1-1.5c0-17.1,6-32.8,16-45.1
	C216.1,147.3,221,157.3,223.5,168.3z M177.3,184c0,2,0.2,3.9,0.3,5.9c-26.5,10.1-46.4,32.4-53.5,59.9C99,238.6,81.3,213.3,81.3,184
	c0-39.7,32.3-72,72-72c16.7,0,32.2,5.8,44.6,15.6C185.1,142.8,177.3,162.5,177.3,184z M180.2,206.2c3.3,12.6,9.3,24.3,17.7,34.3
	c-12.6,10-28.2,15.6-44.6,15.6c-4.7,0-9.4-0.5-13.8-1.4C144.8,232.9,159.9,215,180.2,206.2z M311.3,238.7l-14.8,14.8l-24.9-18.7
	l-5.9-11.7l39.9,5.7L311.3,238.7z M436.6,223.9c0.4,0.7,1,2,0.4,3.7c-0.7,2-2.7,3.3-4.8,3l-16.8-2.4l1.5-8.8l16.6,2.4
	C435.2,222.1,436.2,223.2,436.6,223.9z M401.3,40v142.7l-16-9.3V64h-8c-13.2,0-24-10.8-24-24s10.8-24,24-24S401.3,26.8,401.3,40z
	 M17.3,40c0-13.2,10.8-24,24-24h304.2c-5.1,6.7-8.2,15-8.2,24s3.1,17.3,8.2,24H41.3C28.1,64,17.3,53.2,17.3,40z M335.3,434.2
	l13.1,45.8H49.3V80h320v84.1l-22.6-13.2C333.3,117.9,301,96,265.3,96c-21.3,0-40.8,7.6-56,20.2C194,103.5,174.4,96,153.3,96
	c-48.5,0-88,39.5-88,88c0,37.3,23.4,69.2,56.3,82c-0.1,2-0.3,4-0.3,6c0,48.5,39.5,88,88,88c26.7,0,51.5-12,68.2-32.6l6.6,6.6
	l54.3,46.6l16.3,48.8L335.3,434.2z"/>
</svg>
